<?xml version="1.0" standalone="no"?>
<!DOCTYPE svg PUBLIC "-//W3C//DTD SVG 20010904//EN"
 "http://www.w3.org/TR/2001/REC-SVG-20010904/DTD/svg10.dtd">
<svg version="1.0" xmlns="http://www.w3.org/2000/svg"
 width="1024.000000pt" height="1024.000000pt" viewBox="0 0 1024.000000 1024.000000"
 preserveAspectRatio="xMidYMid meet">

<g transform="translate(0.000000,1024.000000) scale(0.100000,-0.100000)"
fill="#000000" stroke="none">
<path d="M864 10225 c-158 -28 -268 -73 -399 -160 -210 -140 -363 -358 -428
-612 l-22 -88 0 -4245 0 -4245 22 -88 c48 -187 142 -354 274 -485 78 -79 202
-166 295 -208 32 -15 62 -31 65 -36 3 -4 49 -19 103 -33 l99 -25 4252 0 4252
0 94 24 c227 57 439 202 574 390 62 87 131 236 163 353 l27 98 0 4250 0 4250
-22 88 c-32 124 -75 221 -143 324 -139 212 -348 362 -600 432 l-95 26 -4220 2
c-3399 1 -4234 -1 -4291 -12z m3934 -1992 l2 -1103 -27 -6 c-310 -68 -560
-181 -793 -359 -120 -91 -195 -163 -296 -285 -158 -190 -288 -442 -343 -665
l-17 -70 -1172 -3 -1172 -2 2 1482 3 1483 27 80 c42 122 92 199 198 305 77 78
112 104 185 142 96 49 203 85 288 98 29 4 741 7 1582 6 l1530 -1 3 -1102z
m3837 1080 c313 -88 540 -318 600 -609 13 -63 15 -269 15 -1519 l0 -1445
-1127 2 -1127 3 -9 35 c-70 270 -191 508 -358 706 -124 146 -305 304 -442 386
-134 80 -345 173 -482 214 -33 9 -107 27 -165 39 l-105 21 -3 1084 c-1 597 0
1091 3 1098 4 10 308 12 1562 10 l1558 -3 80 -22z m-3449 -2768 c91 -53 96
-93 17 -130 -63 -30 -118 -41 -158 -31 -21 5 -26 12 -23 34 3 23 7 27 33 26
17 -1 40 -5 53 -9 32 -11 29 18 -3 33 -61 28 -117 2 -117 -55 0 -39 34 -63 92
-63 46 0 151 30 175 50 18 15 25 1 25 -51 0 -58 -15 -71 -105 -89 -72 -15
-137 -8 -204 21 -56 23 -127 93 -137 134 -15 58 56 138 138 155 71 15 164 4
214 -25z m-201 -304 c81 -25 133 -26 228 -5 84 19 114 33 162 75 19 17 39 28
45 24 6 -4 7 -43 3 -110 l-6 -104 259 5 c142 3 293 2 334 -3 65 -7 75 -11 75
-28 0 -12 -11 -25 -28 -33 -51 -24 -15 -36 143 -46 133 -8 150 -11 150 -26 0
-21 -15 -25 -135 -40 -49 -6 -130 -17 -180 -25 -171 -27 -370 -56 -495 -73
l-125 -17 0 -145 0 -145 125 3 c142 4 357 -19 465 -50 169 -48 295 -139 351
-255 37 -76 45 -191 19 -261 -28 -74 -82 -143 -156 -202 -172 -134 -411 -225
-736 -278 -119 -19 -113 -9 -113 -164 l0 -106 -43 -45 c-113 -116 -314 -115
-420 2 -42 47 -46 59 -49 161 l-3 75 -230 6 c-220 6 -464 29 -512 49 -28 12
-30 41 -3 65 11 10 18 21 15 25 -2 3 -37 12 -77 19 -112 19 -133 26 -133 41 0
11 30 19 115 32 163 25 344 57 420 73 129 29 256 58 325 75 l70 18 -1 216 c0
119 -4 219 -7 223 -4 3 -78 -4 -164 -16 -294 -40 -424 -24 -515 65 -62 62 -88
119 -88 196 0 77 25 125 106 204 119 117 410 260 614 303 l35 7 0 164 -1 165
48 -47 c36 -36 62 -51 113 -67z m-1681 -1123 c3 -13 13 -59 22 -103 49 -234
187 -517 346 -712 262 -321 617 -542 1036 -643 l92 -22 0 -1069 0 -1069 -1542
0 c-1467 0 -1547 1 -1633 19 -115 24 -192 55 -293 120 -130 84 -239 213 -298
353 -56 132 -54 72 -54 1671 l0 1477 1160 0 1160 0 4 -22z m5946 -1450 c0
-1591 2 -1532 -53 -1668 -41 -101 -88 -171 -172 -255 -84 -84 -193 -155 -296
-193 -145 -53 -99 -52 -1760 -52 l-1539 0 2 1062 3 1062 114 23 c435 87 824
321 1103 664 168 206 309 511 348 753 l13 76 1118 0 1119 0 0 -1472z m-7845
-2649 c4 -11 2 -75 -4 -142 -6 -67 -13 -166 -17 -219 -6 -104 -19 -133 -49
-108 -13 11 -15 29 -9 107 l7 94 -74 -7 c-41 -3 -77 -9 -81 -11 -5 -2 -8 -30
-8 -61 0 -57 -13 -128 -24 -140 -4 -3 -14 2 -23 11 -15 15 -16 28 -5 134 6 65
14 159 17 208 4 50 8 100 11 113 6 31 40 29 48 -3 6 -23 0 -113 -10 -164 -5
-24 -5 -24 67 -18 40 3 77 11 83 17 6 6 13 50 15 98 1 48 8 93 13 100 16 18
36 15 43 -9z m2700 1 c37 -41 25 -150 -18 -158 -14 -3 -17 5 -17 52 0 70 -14
72 -69 10 -72 -82 -113 -243 -76 -300 14 -22 22 -25 48 -20 16 3 45 17 63 31
39 30 54 32 54 6 0 -43 -84 -111 -137 -111 -57 0 -103 68 -103 154 0 54 33
164 68 230 34 62 106 126 142 126 15 0 35 -9 45 -20z m4740 -1 c4 -11 2 -75
-4 -142 -6 -67 -13 -166 -17 -219 -4 -69 -10 -101 -21 -110 -23 -19 -45 17
-39 62 3 19 7 58 8 85 l3 50 -60 -2 c-104 -5 -105 -5 -105 -71 0 -57 -13 -128
-24 -140 -4 -3 -14 2 -23 11 -15 15 -16 28 -5 134 6 65 14 159 17 208 8 122
12 135 35 135 27 0 33 -33 23 -125 -11 -90 -10 -91 75 -82 73 8 82 21 82 115
0 76 11 112 35 112 7 0 17 -9 20 -21z m-351 -5 c21 -21 22 -126 1 -144 -8 -7
-22 -9 -31 -6 -14 5 -15 15 -10 56 6 43 4 50 -10 50 -25 0 -77 -60 -106 -122
-75 -157 -48 -285 49 -234 16 8 35 22 42 30 32 38 58 -6 28 -45 -22 -29 -89
-69 -116 -69 -126 0 -137 236 -18 412 23 34 53 68 67 75 35 18 85 16 104 -3z
m-7890 -16 c2 -13 12 -63 22 -113 21 -108 58 -228 85 -271 19 -31 17 -61 -5
-76 -19 -12 -54 32 -73 93 -18 58 -18 59 -50 53 -78 -15 -106 -30 -122 -70
-21 -53 -30 -64 -46 -64 -32 0 -26 47 18 151 24 57 56 136 70 174 45 125 56
145 77 145 12 0 21 -8 24 -22z m450 -28 c0 -44 -32 -351 -40 -398 -4 -17 -10
-22 -27 -20 -23 3 -47 45 -108 191 -18 42 -36 74 -40 70 -4 -5 -13 -64 -19
-133 -12 -121 -25 -160 -49 -146 -6 4 -11 28 -11 54 0 60 45 390 54 399 16 17
41 -18 58 -81 21 -79 82 -216 96 -216 5 0 16 70 25 155 9 86 19 160 23 166 3
6 13 9 22 7 13 -3 17 -14 16 -48z m482 26 c3 -14 1 -56 -5 -95 -6 -38 -11
-110 -11 -159 0 -75 3 -93 21 -116 24 -31 57 -33 91 -6 31 24 36 48 48 217 11
142 14 159 36 167 28 11 34 -28 23 -145 -16 -177 -26 -228 -54 -269 -88 -127
-225 -39 -225 143 0 60 25 262 35 277 11 18 35 10 41 -14z m339 4 c3 -10 1
-45 -5 -77 -6 -32 -13 -119 -16 -193 -6 -166 -9 -180 -34 -180 -14 0 -21 9
-26 37 -9 47 23 402 38 420 15 19 36 16 43 -7z m460 4 c37 -24 51 -82 35 -141
-17 -60 -83 -126 -149 -150 l-48 -17 -9 -80 c-8 -71 -11 -81 -29 -81 -27 0
-30 35 -15 221 9 110 9 157 1 172 -6 11 -8 28 -4 37 17 45 168 72 218 39z
m283 -4 c55 -52 49 -150 -13 -216 -19 -20 -35 -40 -35 -43 0 -4 27 -37 60 -74
33 -38 60 -70 60 -73 0 -15 -22 -44 -33 -44 -14 0 -58 45 -99 100 -37 51 -75
90 -88 90 -6 0 -10 -35 -10 -94 0 -74 -3 -96 -16 -107 -14 -11 -18 -10 -31 6
-12 16 -14 41 -8 130 3 61 11 143 16 183 6 41 8 86 4 101 -9 44 17 57 121 60
38 1 56 -4 72 -19z m348 2 c44 -37 58 -72 58 -141 0 -83 -25 -161 -73 -231
-61 -89 -135 -123 -183 -86 -27 20 -58 96 -58 144 0 106 60 260 122 312 30 25
105 26 134 2z m411 2 c3 -9 -6 -41 -21 -72 -15 -32 -55 -129 -90 -217 -50
-128 -67 -161 -83 -163 -25 -4 -26 -2 -82 225 -45 176 -48 205 -27 222 21 18
34 -6 50 -92 20 -104 57 -237 65 -237 4 0 22 42 41 93 78 215 99 257 126 257
8 0 17 -7 21 -16z m80 0 c3 -9 0 -59 -7 -110 -7 -51 -15 -148 -19 -216 -6
-114 -7 -123 -26 -123 -18 0 -20 8 -24 70 -3 78 17 338 30 373 10 26 37 29 46
6z m348 -49 c-1 -56 -30 -331 -41 -382 -3 -15 -12 -23 -25 -23 -15 0 -29 19
-60 86 -22 47 -48 107 -58 132 -10 26 -23 46 -27 45 -5 -1 -13 -42 -17 -90
-16 -181 -22 -201 -52 -189 -20 7 -19 42 10 276 22 179 22 180 45 180 15 0 24
-15 41 -72 29 -100 90 -241 100 -231 4 4 15 71 24 148 20 180 22 187 43 183
14 -3 17 -14 17 -63z m610 35 c0 -23 -6 -26 -80 -41 -88 -17 -91 -20 -94 -111
-1 -44 4 -45 72 -22 52 18 77 9 77 -27 0 -24 -21 -34 -96 -49 -57 -11 -62 -15
-68 -42 -3 -17 -6 -46 -6 -65 l0 -34 48 7 c26 3 51 10 57 15 5 5 22 9 37 9 21
0 29 -6 34 -26 9 -36 -6 -47 -84 -61 -103 -18 -140 -16 -147 6 -3 10 1 84 10
165 8 80 15 177 15 215 0 74 8 89 37 71 13 -8 30 -7 63 4 25 8 63 14 85 13 36
-2 40 -5 40 -27z m438 -2 c17 -23 19 -31 9 -53 -14 -30 -38 -33 -45 -5 -7 29
-32 34 -72 16 -40 -20 -57 -46 -53 -84 2 -21 15 -33 63 -58 131 -69 137 -158
16 -251 -35 -27 -52 -33 -92 -33 -43 0 -51 3 -59 24 -5 13 -6 33 -3 45 5 19
10 21 52 15 41 -5 51 -2 89 25 61 45 57 62 -23 106 -69 38 -94 63 -101 102 -9
48 20 116 64 153 32 26 44 30 86 28 40 -2 53 -8 69 -30z m127 12 c8 -15 8 -38
0 -82 -18 -95 -18 -250 -1 -282 30 -56 106 -41 128 26 6 20 16 97 21 171 5 74
12 140 16 146 4 6 16 11 27 11 23 0 24 -23 9 -204 -11 -136 -31 -190 -82 -230
-48 -36 -88 -34 -131 7 -65 60 -73 172 -31 425 6 36 28 43 44 12z m345 0 c3
-10 1 -45 -5 -77 -6 -32 -13 -119 -16 -193 -6 -166 -9 -180 -34 -180 -14 0
-21 10 -26 38 -9 46 23 401 38 419 15 19 36 16 43 -7z m134 -65 c22 -47 42
-85 44 -85 2 0 27 39 56 86 37 60 57 84 69 82 35 -7 24 -46 -38 -138 -71 -106
-71 -105 7 -211 45 -62 54 -95 27 -106 -22 -8 -56 28 -89 97 -16 33 -32 60
-37 60 -12 0 -59 -78 -84 -139 -12 -29 -29 -60 -38 -70 -15 -14 -18 -14 -26
-1 -5 8 -10 25 -10 37 0 24 52 129 97 194 l30 43 -44 91 c-33 69 -43 98 -38
118 12 47 34 30 74 -58z m318 68 c4 -9 1 -62 -7 -117 -7 -56 -14 -150 -16
-210 -4 -112 -11 -133 -38 -123 -13 5 -16 25 -16 104 0 94 25 336 36 354 9 15
34 10 41 -8z m320 5 c6 -7 23 -64 38 -126 15 -62 31 -110 35 -105 5 4 35 60
68 123 43 82 66 116 80 118 31 5 34 -24 22 -191 -6 -83 -12 -179 -13 -212 -2
-53 -4 -60 -22 -60 -19 0 -20 6 -18 165 l1 165 -48 -95 c-26 -52 -57 -103 -68
-113 -20 -18 -21 -18 -35 5 -8 12 -21 50 -28 83 -7 33 -15 66 -19 73 -3 7 -15
-51 -25 -130 -19 -147 -26 -171 -50 -161 -25 9 -26 39 -5 165 12 67 25 158 30
200 9 93 31 129 57 96z m399 -12 c3 -13 1 -50 -6 -82 -6 -33 -13 -117 -16
-189 -7 -161 -9 -175 -33 -175 -25 0 -35 55 -27 142 24 258 30 304 38 316 16
19 37 14 44 -12z m282 8 c65 -46 87 -192 42 -286 -30 -64 -90 -125 -153 -154
-29 -14 -59 -30 -68 -36 -9 -6 -24 -8 -33 -5 -15 6 -16 19 -11 114 4 60 11
152 16 206 7 81 6 102 -6 119 -10 15 -11 26 -4 40 8 15 23 18 102 18 68 0 99
-4 115 -16z m346 -5 c44 -35 60 -76 60 -159 1 -128 -60 -222 -181 -277 -29
-13 -55 -29 -58 -34 -8 -12 -42 -12 -50 1 -3 5 2 98 11 207 12 146 13 202 5
215 -12 20 -15 51 -4 61 3 4 48 7 98 7 78 0 96 -3 119 -21z m191 2 c3 -10 1
-58 -4 -107 -5 -49 -13 -131 -16 -182 l-7 -93 43 7 c24 3 61 10 82 15 46 12
57 6 57 -30 0 -39 -17 -51 -71 -51 -26 0 -70 -8 -99 -17 -67 -21 -73 -13 -65
87 3 41 10 139 15 217 5 77 13 148 16 157 8 22 41 20 49 -3z m445 -6 c0 -30
-20 -40 -102 -50 -31 -4 -59 -13 -61 -20 -3 -6 -8 -37 -12 -68 -8 -65 -5 -67
69 -42 52 18 76 12 76 -20 0 -30 -7 -34 -89 -55 -71 -18 -78 -26 -80 -103 l-1
-38 48 7 c26 3 55 10 64 15 32 17 57 10 64 -17 4 -15 2 -30 -5 -37 -12 -12
-123 -35 -177 -36 -55 -2 -58 12 -40 171 9 79 17 177 17 218 1 77 10 96 38 79
11 -7 31 -5 61 5 25 8 64 14 88 15 39 1 42 -1 42 -24z m422 8 c8 -10 17 -25
20 -33 7 -21 -9 -60 -24 -60 -7 0 -18 10 -23 23 -14 30 -44 32 -85 5 -30 -21
-35 -29 -35 -63 0 -39 2 -41 60 -72 78 -41 95 -63 95 -122 0 -40 -6 -54 -35
-88 -42 -49 -89 -73 -144 -73 -46 0 -67 25 -56 67 5 22 9 24 45 18 65 -11 149
41 136 83 -4 11 -26 29 -50 40 -23 11 -56 32 -73 46 -58 49 -49 144 19 209 34
32 45 37 87 37 33 0 52 -5 63 -17z m966 -8 c43 -36 55 -73 50 -162 -4 -88 -33
-163 -90 -234 -127 -159 -262 -23 -203 204 20 75 60 155 97 189 40 38 103 39
146 3z m356 -10 c25 -25 37 -47 42 -80 23 -159 -98 -375 -211 -375 -41 0 -68
30 -91 99 -15 48 -16 64 -6 125 15 85 71 205 113 240 47 40 108 37 153 -9z
m168 17 c3 -10 -1 -78 -8 -152 -7 -74 -13 -156 -13 -183 l-1 -47 43 6 c23 3
57 10 76 15 40 10 61 -2 61 -36 0 -33 -17 -42 -97 -48 -39 -3 -80 -11 -91 -18
-28 -18 -52 -5 -52 28 1 66 30 435 35 443 10 17 42 11 47 -8z"/>
<path d="M2377 8669 c-86 -9 -150 -32 -218 -78 -65 -44 -160 -154 -202 -236
-31 -58 -32 -65 -35 -211 -4 -150 -4 -150 23 -182 33 -40 81 -50 125 -27 47
24 60 66 60 190 0 125 7 142 89 228 66 69 98 88 166 98 62 9 240 -6 320 -26
87 -22 197 -79 248 -128 70 -68 99 -142 105 -262 2 -55 -1 -142 -7 -193 -9
-85 -16 -106 -73 -219 -72 -143 -116 -197 -231 -284 -97 -74 -200 -124 -357
-174 -377 -119 -409 -132 -453 -185 -52 -61 -48 -133 11 -188 69 -65 41 -63
735 -65 604 -2 633 -1 663 17 84 51 85 169 1 213 -28 14 -76 17 -364 21 l-333
4 58 28 c73 35 251 155 320 215 70 62 130 148 196 281 81 164 88 192 93 394 6
207 -7 286 -64 399 -71 141 -195 245 -364 306 -159 56 -357 81 -512 64z"/>
<path d="M6990 8580 c-164 -28 -250 -68 -323 -149 -44 -49 -61 -99 -62 -183 0
-61 3 -70 28 -95 22 -22 37 -28 73 -28 39 0 50 5 75 33 23 26 29 42 29 78 0
38 5 51 31 75 62 58 233 85 493 76 206 -6 277 -24 349 -87 60 -53 71 -88 65
-214 -6 -122 -19 -155 -125 -316 -102 -152 -243 -292 -450 -448 -189 -141
-243 -171 -389 -212 -130 -36 -164 -55 -187 -103 -42 -83 19 -164 141 -186 46
-9 137 -3 562 35 96 9 310 19 475 22 326 8 333 9 371 67 21 32 20 96 -1 129
-36 55 -54 57 -430 54 -190 -2 -345 -2 -345 -1 0 0 52 45 115 98 140 118 232
222 337 380 96 145 153 260 167 339 14 78 14 231 0 298 -36 169 -183 300 -384
343 -104 22 -476 19 -615 -5z"/>
<path d="M4746 5662 c-75 -40 -126 -97 -126 -142 0 -39 55 -93 133 -129 37
-17 72 -31 78 -31 9 0 10 44 5 163 -4 89 -11 165 -14 169 -4 4 -38 -10 -76
-30z"/>
<path d="M5400 5317 c0 -63 -3 -169 -7 -237 l-6 -122 24 7 c54 17 214 102 240
127 35 35 53 89 45 133 -9 46 -87 130 -144 156 -46 20 -129 49 -144 49 -5 0
-8 -51 -8 -113z"/>
<path d="M2660 4310 c-109 -14 -320 -95 -419 -161 -41 -28 -60 -35 -73 -28 -9
5 -37 9 -62 9 -36 0 -52 -6 -80 -30 -44 -39 -51 -61 -77 -240 -26 -178 -38
-669 -20 -790 14 -90 71 -265 106 -323 44 -76 113 -144 173 -174 55 -27 63
-28 207 -28 177 1 220 12 339 95 234 162 373 328 479 574 85 197 115 390 99
633 -11 170 -31 223 -116 300 -136 125 -354 189 -556 163z m272 -266 c45 -22
92 -52 109 -71 l29 -34 0 -183 c0 -215 -11 -273 -90 -452 -86 -199 -190 -332
-352 -454 -88 -66 -125 -80 -228 -82 -65 -1 -73 1 -101 28 -37 35 -102 166
-124 249 -19 72 -39 483 -30 620 7 105 24 264 30 283 3 9 13 7 37 -8 48 -29
95 -26 154 11 43 28 244 117 299 132 11 3 58 4 104 2 70 -4 96 -10 163 -41z"/>
<path d="M7105 4216 c-124 -33 -230 -104 -316 -213 -89 -112 -102 -142 -107
-249 -4 -89 -4 -92 25 -124 25 -28 38 -34 84 -38 49 -4 59 -1 88 24 35 29 36
43 16 141 -6 27 -1 40 30 82 47 64 109 119 171 151 46 23 58 25 174 22 l125
-2 95 -48 c118 -59 130 -77 130 -204 l0 -87 -51 -61 c-71 -86 -160 -148 -333
-234 l-149 -75 -52 46 c-52 46 -168 101 -213 102 -38 1 -83 -28 -98 -65 -12
-29 -12 -39 -1 -66 18 -42 30 -52 99 -78 37 -13 65 -32 78 -50 l21 -30 -65
-90 c-127 -177 -161 -276 -161 -475 0 -116 2 -135 23 -177 28 -56 94 -117 160
-148 108 -51 368 -80 550 -61 122 13 219 47 347 124 191 114 275 260 275 477
0 111 -16 156 -75 213 -48 47 -120 73 -248 92 -56 9 -124 23 -150 31 -27 9
-80 24 -119 33 l-70 16 94 58 c116 72 189 136 267 233 81 100 95 148 89 303
-6 144 -26 197 -103 270 -54 51 -199 131 -270 149 -69 18 -304 23 -360 8z
m115 -1197 c139 -39 399 -99 478 -109 46 -6 95 -16 109 -23 25 -11 25 -13 21
-92 -9 -156 -57 -219 -234 -307 -97 -48 -105 -50 -220 -59 -192 -16 -390 6
-436 48 -27 24 -25 197 2 285 33 107 166 296 199 282 9 -3 45 -15 81 -25z"/>
<path d="M555 859 c-26 -72 -43 -129 -37 -129 4 0 23 5 43 10 l36 10 -10 53
c-11 56 -23 79 -32 56z"/>
<path d="M2224 947 c-28 -9 -33 -16 -38 -55 -3 -25 -6 -62 -6 -83 l0 -38 31
11 c17 6 48 27 70 48 30 28 39 45 39 70 0 53 -31 68 -96 47z"/>
<path d="M2502 943 c-17 -14 -22 -34 -26 -98 -3 -44 -3 -74 0 -67 3 6 16 12
29 12 13 0 40 15 59 34 28 26 36 41 36 68 0 60 -54 88 -98 51z"/>
<path d="M2856 935 c-46 -43 -80 -130 -84 -218 -3 -64 -1 -82 13 -98 26 -28
50 -24 94 16 44 40 79 114 88 185 8 67 -2 97 -40 120 -40 25 -39 25 -71 -5z"/>
<path d="M6636 951 c-9 -13 -31 -320 -24 -326 10 -10 81 24 112 53 39 37 66
98 66 154 0 59 -16 96 -51 114 -31 16 -95 19 -103 5z"/>
<path d="M6976 938 c-3 -13 -9 -90 -13 -172 l-6 -148 23 7 c45 14 88 46 116
87 26 37 29 50 29 121 0 76 -1 80 -30 103 -41 33 -110 34 -119 2z"/>
<path d="M9033 932 c-48 -44 -75 -115 -80 -213 -6 -91 5 -119 47 -119 50 0
122 103 140 202 14 74 4 116 -34 139 -39 24 -38 24 -73 -9z"/>
<path d="M9377 933 c-65 -69 -108 -241 -75 -303 51 -97 189 63 188 218 -1 60
-11 81 -47 100 -31 17 -36 15 -66 -15z"/>
</g>
</svg>
